<?xml version="1.0" standalone="no"?>
<!DOCTYPE svg PUBLIC "-//W3C//DTD SVG 20010904//EN"
 "http://www.w3.org/TR/2001/REC-SVG-20010904/DTD/svg10.dtd">
<svg version="1.0" xmlns="http://www.w3.org/2000/svg"
 width="512.000000pt" height="512.000000pt" viewBox="0 0 512.000000 512.000000"
 preserveAspectRatio="xMidYMid meet">

<g transform="translate(0.000000,512.000000) scale(0.100000,-0.100000)"
fill="#000000" stroke="none">
<path d="M2476 4332 c-3 -5 4 -24 15 -43 42 -73 59 -119 69 -190 11 -78 10
-106 -20 -319 -42 -302 -45 -335 -31 -407 8 -37 17 -74 21 -82 14 -27 129 328
156 483 22 125 15 290 -15 368 -24 62 -104 159 -152 183 -33 17 -36 18 -43 7z"/>
<path d="M2211 4246 c70 -149 73 -213 24 -464 -42 -217 -57 -364 -46 -452 5
-36 7 -68 5 -71 -2 -3 -47 -9 -101 -12 -349 -22 -645 -142 -699 -283 -15 -40
-15 -48 -2 -83 13 -33 13 -46 1 -102 -41 -188 43 -580 173 -818 104 -188 280
-363 391 -386 29 -6 23 3 -64 87 -52 51 -120 130 -150 176 -106 159 -246 529
-282 751 -19 113 -27 211 -17 211 2 0 27 -15 54 -34 92 -62 247 -109 473 -145
585 -93 1341 -23 1595 149 45 30 46 30 41 8 -3 -13 -22 -99 -42 -191 -92 -432
-212 -739 -343 -878 -53 -55 -76 -72 -107 -79 -51 -11 -229 -26 -475 -40 -107
-6 -229 -14 -270 -18 l-75 -7 30 -17 c63 -33 184 -52 335 -51 167 0 292 19
425 64 117 40 176 73 238 131 42 40 58 48 89 48 20 0 72 5 114 11 l77 12 29
-31 c54 -61 50 -111 -16 -176 -100 -100 -335 -170 -696 -207 -193 -20 -619
-18 -760 5 -259 40 -478 99 -560 151 -104 65 -104 161 -2 253 l37 33 -40 -16
c-120 -46 -150 -182 -62 -282 82 -93 403 -203 717 -245 147 -20 548 -16 695 6
429 64 680 170 756 318 29 56 22 116 -19 167 l-30 37 64 18 c36 10 110 41 165
68 l100 49 38 -30 c244 -193 220 -387 -64 -525 -212 -103 -524 -172 -940 -208
-197 -17 -905 -16 -1080 0 -593 58 -961 187 -1055 372 -23 46 -26 116 -7 163
45 105 206 211 477 313 99 38 108 43 65 38 -251 -32 -513 -180 -586 -332 -66
-135 -15 -259 150 -371 102 -69 260 -141 391 -176 46 -13 77 -30 107 -56 88
-80 289 -151 543 -193 344 -56 832 -43 1148 30 191 44 409 137 467 199 22 24
57 41 140 69 400 136 547 314 440 532 -30 62 -96 138 -154 178 l-40 28 59 60
c116 116 178 298 152 447 -21 118 -92 229 -183 287 -81 51 -205 67 -304 40
-28 -7 -57 -15 -65 -17 -20 -6 -31 82 -13 113 41 74 -7 158 -119 212 -135 64
-328 98 -663 116 -204 12 -505 5 -505 -11 0 -5 6 -9 13 -9 28 0 351 -31 467
-45 414 -49 683 -118 706 -180 17 -44 -26 -87 -133 -130 l-57 -24 -11 32 c-18
58 -152 108 -380 143 -168 26 -671 27 -855 1 -254 -36 -430 -98 -430 -152 0
-10 11 -8 43 10 23 12 53 26 67 30 21 6 19 3 -10 -18 -19 -13 -41 -22 -49 -19
-10 4 -12 1 -6 -9 4 -8 4 -11 0 -6 -5 4 -18 1 -30 -7 -19 -13 -30 -12 -90 9
-79 28 -140 66 -147 92 -19 72 129 169 357 233 98 27 366 83 371 77 1 -1 11
-21 22 -43 12 -23 33 -55 47 -72 25 -30 111 -79 121 -69 3 3 -9 32 -28 64 -64
111 -71 139 -35 146 19 4 18 4 -5 6 -27 1 -28 3 -28 52 0 28 19 142 42 252 38
185 42 215 42 357 1 138 -2 161 -22 210 -32 80 -74 132 -131 164 l-50 27 30
-65z m134 -1376 c-9 -16 -17 -30 -19 -30 -3 0 1 14 7 30 6 17 15 30 19 30 5 0
2 -13 -7 -30z m75 -47 c-56 -105 -78 -124 -41 -36 17 40 31 81 31 92 0 16 6
21 26 21 l26 0 -42 -77z m721 53 c105 -14 170 -34 183 -54 29 -47 -210 -86
-637 -103 -141 -5 -264 -6 -271 -2 -12 7 -12 11 0 27 12 17 14 18 14 3 0 -28
18 -19 46 23 27 40 44 44 44 9 0 -10 4 -19 8 -19 12 0 48 29 37 30 -6 0 -16
-5 -22 -11 -7 -7 -12 -1 -16 20 -7 34 -30 41 -47 14 -9 -15 -10 -12 -6 16 3
18 6 43 6 54 0 20 4 20 278 14 156 -3 324 -12 383 -21z m-1331 -67 c-15 -28
-5 -35 30 -22 27 10 28 10 17 -8 -9 -15 -19 -18 -47 -13 -74 14 -79 19 -35 42
50 26 48 26 35 1z m2113 -88 c163 -56 239 -178 224 -357 -12 -139 -81 -280
-171 -349 -33 -25 -35 -25 -68 -9 l-35 16 48 50 c27 28 64 80 82 117 28 58 32
75 32 151 0 98 -20 152 -76 212 -70 73 -128 59 -241 -60 l-71 -75 6 48 c4 27
10 93 14 147 3 54 6 98 7 98 1 0 19 7 41 15 56 20 142 18 208 -4z m-24 -213
c31 -32 45 -85 45 -168 1 -63 -3 -84 -27 -130 -33 -63 -89 -135 -118 -150 -13
-7 -31 -8 -57 -1 -38 10 -185 25 -167 17 6 -3 47 -15 92 -26 46 -12 80 -26 77
-31 -14 -24 -238 -119 -250 -107 -2 3 12 39 31 81 41 88 77 200 100 308 16 72
19 78 63 110 127 93 167 119 178 119 7 0 22 -10 33 -22z m-34 -530 c14 -6 24
-16 22 -22 -6 -17 -155 -93 -235 -120 -49 -17 -80 -22 -95 -17 -12 4 -35 11
-52 15 l-30 7 30 -20 c21 -15 25 -21 15 -25 -29 -10 -121 -23 -118 -17 2 3 17
27 33 53 27 43 34 47 68 48 67 0 170 30 242 69 80 44 85 45 120 29z m-335
-854 c-56 -25 -256 -72 -375 -89 -385 -53 -1008 -59 -1283 -10 -90 15 -245 55
-239 61 2 2 64 -5 138 -16 222 -32 400 -43 684 -43 381 1 679 26 950 83 155
32 171 34 125 14z"/>
<path d="M2827 4073 c-3 -5 -1 -33 4 -63 11 -66 5 -111 -26 -210 -30 -92 -45
-184 -45 -271 0 -56 5 -77 36 -138 20 -40 38 -71 40 -68 2 2 13 49 24 104 11
55 27 120 36 144 74 209 69 372 -13 469 -34 39 -47 47 -56 33z"/>
<path d="M3365 1585 c-163 -78 -347 -105 -747 -112 -423 -7 -568 12 -747 97
-46 22 -86 39 -88 36 -2 -2 18 -26 44 -53 77 -78 250 -138 488 -169 156 -21
496 -15 635 11 216 40 423 122 475 191 14 19 22 34 18 33 -4 0 -39 -16 -78
-34z"/>
</g>
</svg>
